<svg width="222" height="342" viewBox="0 0 222 342" fill="none" xmlns="http://www.w3.org/2000/svg">
<path d="M73.85 148.113L111.22 185.543L148.85 147.973C163.98 132.863 168.11 110.893 161.21 92.0425C158.64 85.0125 154.54 78.4225 148.9 72.7725C128.15 51.9925 94.48 51.9725 73.7 72.7225C68.06 78.3625 63.95 84.9425 61.36 91.9725C52.27 96.7925 43.74 103.033 36.08 110.683C25.09 121.663 17 134.453 11.81 148.083C-2.56001 110.143 5.54999 65.6225 36.12 35.0925C77.68 -6.40747 145.02 -6.35747 186.52 35.2025C217.04 65.7625 225.09 110.283 210.68 148.193C205.49 161.833 197.41 174.613 186.41 185.593L111.16 260.733L70.05 219.563C52.93 198.673 54.14 167.783 73.65 148.293L73.84 148.103L73.85 148.113Z" stroke="black" stroke-width="8" stroke-miterlimit="10"/>
<path d="M111.12 336.323L35.98 261.073C5.45999 230.513 -2.58998 185.992 11.82 148.082C17.01 134.442 25.09 121.662 36.09 110.682C43.75 103.032 52.28 96.7925 61.37 91.9725C92.5 75.4425 130.12 75.4725 161.22 92.0425C168.12 110.892 163.99 132.862 148.86 147.972L148.67 148.162C127.97 127.642 94.58 127.632 73.86 148.122L73.67 148.312C54.16 167.802 52.94 198.693 70.07 219.583C71.18 220.943 72.36 222.252 73.62 223.512L111.19 261.143L148.82 223.573C150.12 222.283 151.34 220.933 152.47 219.533L186.44 185.612C197.43 174.632 205.52 161.843 210.71 148.213C225.08 186.153 216.97 230.673 186.4 261.203L111.15 336.342L111.12 336.323Z" stroke="black" stroke-width="8" stroke-miterlimit="10"/>
</svg>
